# xmcd CD database file
#
# Track frame offsets:
#	150
#	22230
#	43882
#	61042
#	87765
#	101568
#	122363
#	136848
#	158878
#	183553
#	196938
#	206453
#	225460
#	243318
#
# Disc length: 3452 seconds
#
# Revision: 0
# Processed by: cddbd v1.4PL0 Copyright (c) Steve Scherf et al.
# Submitted via: CDex 1.50Beta7
#
DISCID=b30d7a0e
DTITLE=Basily - Swing for the Gipsies
DYEAR=1900
DGENRE=Jazz
TTITLE0=Swing for the gypsies
TTITLE1=The judge
TTITLE2=Summertime
TTITLE3=Black eyes
TTITLE4=Moored
TTITLE5=Spain
TTITLE6=Oleo
TTITLE7=The shadow of your smile
TTITLE8=How high the Moon/Ornithology
TTITLE9=Topsy
TTITLE10=Maquina da Costura
TTITLE11=Lady be Good
TTITLE12=Night in Spain
TTITLE13=Raklo and Zonzo
EXTD=
EXTT0=
EXTT1=
EXTT2=
EXTT3=
EXTT4=
EXTT5=
EXTT6=
EXTT7=
EXTT8=
EXTT9=
EXTT10=
EXTT11=
EXTT12=
EXTT13=
PLAYORDER=
